<svg id="visual" viewBox="0 0 900 600" width="900" height="600" xmlns="http://www.w3.org/2000/svg" xmlns:xlink="http://www.w3.org/1999/xlink" version="1.1"><rect x="0" y="0" width="900" height="600" fill="#FCC30C"></rect><defs><linearGradient id="grad1_0" x1="33.3%" y1="0%" x2="100%" y2="100%"><stop offset="20%" stop-color="#fa8809" stop-opacity="1"></stop><stop offset="80%" stop-color="#fa8809" stop-opacity="1"></stop></linearGradient></defs><defs><linearGradient id="grad1_1" x1="33.3%" y1="0%" x2="100%" y2="100%"><stop offset="20%" stop-color="#fa8809" stop-opacity="1"></stop><stop offset="80%" stop-color="#fc9701" stop-opacity="1"></stop></linearGradient></defs><defs><linearGradient id="grad1_2" x1="33.3%" y1="0%" x2="100%" y2="100%"><stop offset="20%" stop-color="#fda600" stop-opacity="1"></stop><stop offset="80%" stop-color="#fc9701" stop-opacity="1"></stop></linearGradient></defs><defs><linearGradient id="grad1_3" x1="33.3%" y1="0%" x2="100%" y2="100%"><stop offset="20%" stop-color="#fda600" stop-opacity="1"></stop><stop offset="80%" stop-color="#fdb401" stop-opacity="1"></stop></linearGradient></defs><defs><linearGradient id="grad1_4" x1="33.3%" y1="0%" x2="100%" y2="100%"><stop offset="20%" stop-color="#fcc30c" stop-opacity="1"></stop><stop offset="80%" stop-color="#fdb401" stop-opacity="1"></stop></linearGradient></defs><defs><linearGradient id="grad2_0" x1="0%" y1="0%" x2="66.7%" y2="100%"><stop offset="20%" stop-color="#fa8809" stop-opacity="1"></stop><stop offset="80%" stop-color="#fa8809" stop-opacity="1"></stop></linearGradient></defs><defs><linearGradient id="grad2_1" x1="0%" y1="0%" x2="66.7%" y2="100%"><stop offset="20%" stop-color="#fc9701" stop-opacity="1"></stop><stop offset="80%" stop-color="#fa8809" stop-opacity="1"></stop></linearGradient></defs><defs><linearGradient id="grad2_2" x1="0%" y1="0%" x2="66.7%" y2="100%"><stop offset="20%" stop-color="#fc9701" stop-opacity="1"></stop><stop offset="80%" stop-color="#fda600" stop-opacity="1"></stop></linearGradient></defs><defs><linearGradient id="grad2_3" x1="0%" y1="0%" x2="66.7%" y2="100%"><stop offset="20%" stop-color="#fdb401" stop-opacity="1"></stop><stop offset="80%" stop-color="#fda600" stop-opacity="1"></stop></linearGradient></defs><defs><linearGradient id="grad2_4" x1="0%" y1="0%" x2="66.7%" y2="100%"><stop offset="20%" stop-color="#fdb401" stop-opacity="1"></stop><stop offset="80%" stop-color="#fcc30c" stop-opacity="1"></stop></linearGradient></defs><g transform="translate(900, 0)"><path d="M0 486.7C-59.4 430.3 -118.8 373.9 -196.5 340.3C-274.2 306.8 -370.1 296.3 -421.5 243.4C-473 190.5 -479.9 95.2 -486.7 0L0 0Z" fill="#fcbc05"></path><path d="M0 389.4C-47.5 344.2 -95.1 299.1 -157.2 272.3C-219.3 245.5 -296.1 237 -337.2 194.7C-378.4 152.4 -383.9 76.2 -389.4 0L0 0Z" fill="#fdad00"></path><path d="M0 292C-35.6 258.2 -71.3 224.3 -117.9 204.2C-164.5 184.1 -222.1 177.8 -252.9 146C-283.8 114.3 -287.9 57.1 -292 0L0 0Z" fill="#fc9e00"></path><path d="M0 194.7C-23.8 172.1 -47.5 149.5 -78.6 136.1C-109.7 122.7 -148 118.5 -168.6 97.3C-189.2 76.2 -191.9 38.1 -194.7 0L0 0Z" fill="#fb9005"></path><path d="M0 97.3C-11.9 86.1 -23.8 74.8 -39.3 68.1C-54.8 61.4 -74 59.3 -84.3 48.7C-94.6 38.1 -96 19 -97.3 0L0 0Z" fill="#fa8809"></path></g><g transform="translate(0, 600)"><path d="M0 -486.7C93 -478.6 186.1 -470.4 243.4 -421.5C300.7 -372.7 322.2 -283 356.8 -206C391.4 -129 439.1 -64.5 486.7 0L0 0Z" fill="#fcbc05"></path><path d="M0 -389.4C74.4 -382.9 148.9 -376.3 194.7 -337.2C240.5 -298.1 257.8 -226.4 285.4 -164.8C313.1 -103.2 351.3 -51.6 389.4 0L0 0Z" fill="#fdad00"></path><path d="M0 -292C55.8 -287.2 111.7 -282.3 146 -252.9C180.4 -223.6 193.3 -169.8 214.1 -123.6C234.8 -77.4 263.4 -38.7 292 0L0 0Z" fill="#fc9e00"></path><path d="M0 -194.7C37.2 -191.4 74.4 -188.2 97.3 -168.6C120.3 -149.1 128.9 -113.2 142.7 -82.4C156.6 -51.6 175.6 -25.8 194.7 0L0 0Z" fill="#fb9005"></path><path d="M0 -97.3C18.6 -95.7 37.2 -94.1 48.7 -84.3C60.1 -74.5 64.4 -56.6 71.4 -41.2C78.3 -25.8 87.8 -12.9 97.3 0L0 0Z" fill="#fa8809"></path></g></svg>